<mxfile host="app.diagrams.net" modified="2022-05-12T08:16:38.768Z" agent="5.0 (Macintosh; Intel Mac OS X 10_15_7) AppleWebKit/537.36 (KHTML, like Gecko) Chrome/101.0.4951.54 Safari/537.36" etag="iKOK4e_lIbZxA1hFnQPW" version="17.5.0" type="github">
  <diagram id="0w51vXMNxNr4oueCbIn2" name="Page-1">
    <mxGraphModel dx="1426" dy="737" grid="1" gridSize="10" guides="1" tooltips="1" connect="1" arrows="1" fold="1" page="1" pageScale="1" pageWidth="827" pageHeight="1169" math="0" shadow="0">
      <root>
        <mxCell id="0" />
        <mxCell id="1" parent="0" />
        <mxCell id="GgnKUjVVI10d0pknX_XY-32" value="。。。。。。" style="rounded=0;whiteSpace=wrap;html=1;fillColor=#ffe6cc;strokeColor=#d79b00;container=0;" vertex="1" parent="1">
          <mxGeometry x="60" y="470" width="480" height="50" as="geometry" />
        </mxCell>
        <mxCell id="GgnKUjVVI10d0pknX_XY-38" value="KG其他 流水线" style="text;html=1;align=center;verticalAlign=middle;resizable=0;points=[];autosize=1;strokeColor=#d79b00;fillColor=#ffe6cc;" vertex="1" parent="1">
          <mxGeometry x="60" y="450" width="100" height="20" as="geometry" />
        </mxCell>
        <mxCell id="GgnKUjVVI10d0pknX_XY-39" value="" style="shape=link;html=1;rounded=0;" edge="1" parent="1">
          <mxGeometry width="100" relative="1" as="geometry">
            <mxPoint x="610" y="30" as="sourcePoint" />
            <mxPoint x="610" y="680" as="targetPoint" />
          </mxGeometry>
        </mxCell>
        <mxCell id="GgnKUjVVI10d0pknX_XY-40" value="" style="shape=flexArrow;endArrow=classic;html=1;rounded=0;exitX=1;exitY=0.25;exitDx=0;exitDy=0;width=8;endSize=5.4;" edge="1" parent="1" source="GgnKUjVVI10d0pknX_XY-2" target="GgnKUjVVI10d0pknX_XY-41">
          <mxGeometry width="50" height="50" relative="1" as="geometry">
            <mxPoint x="560" y="394.5" as="sourcePoint" />
            <mxPoint x="690" y="394.5" as="targetPoint" />
          </mxGeometry>
        </mxCell>
        <mxCell id="GgnKUjVVI10d0pknX_XY-42" value="KG流水线能力集合" style="text;html=1;align=center;verticalAlign=middle;resizable=0;points=[];autosize=1;strokeColor=none;fillColor=none;" vertex="1" parent="1">
          <mxGeometry x="540" y="360" width="120" height="20" as="geometry" />
        </mxCell>
        <mxCell id="GgnKUjVVI10d0pknX_XY-2" value="" style="rounded=0;whiteSpace=wrap;html=1;fillColor=#ffe6cc;strokeColor=#d79b00;container=0;" vertex="1" parent="1">
          <mxGeometry x="60" y="380" width="480" height="50" as="geometry" />
        </mxCell>
        <mxCell id="GgnKUjVVI10d0pknX_XY-7" value="ksda 性能测试" style="rounded=1;whiteSpace=wrap;html=1;fillColor=#ffe6cc;strokeColor=#d79b00;container=0;flipH=1;" vertex="1" parent="1">
          <mxGeometry x="443" y="392.821" width="87" height="25.389" as="geometry" />
        </mxCell>
        <mxCell id="GgnKUjVVI10d0pknX_XY-8" value="ks diff 测试" style="rounded=1;whiteSpace=wrap;html=1;fillColor=#ffe6cc;strokeColor=#d79b00;container=0;flipH=1;" vertex="1" parent="1">
          <mxGeometry x="310" y="392.3103703124999" width="69" height="25.389" as="geometry" />
        </mxCell>
        <mxCell id="GgnKUjVVI10d0pknX_XY-10" value="ks沙盒验证" style="rounded=1;whiteSpace=wrap;html=1;fillColor=#ffe6cc;strokeColor=#d79b00;container=0;flipH=1;" vertex="1" parent="1">
          <mxGeometry x="200" y="392.3093628124999" width="69" height="25.389" as="geometry" />
        </mxCell>
        <mxCell id="GgnKUjVVI10d0pknX_XY-11" value="ksda 功能测试" style="rounded=1;whiteSpace=wrap;html=1;fillColor=#ffe6cc;strokeColor=#d79b00;container=0;flipH=1;" vertex="1" parent="1">
          <mxGeometry x="72.5" y="392.8193628124999" width="87" height="25.389" as="geometry" />
        </mxCell>
        <mxCell id="GgnKUjVVI10d0pknX_XY-21" value="KSDA 流水线" style="text;html=1;align=center;verticalAlign=middle;resizable=0;points=[];autosize=1;strokeColor=#d79b00;fillColor=#ffe6cc;" vertex="1" parent="1">
          <mxGeometry x="50" y="360" width="90" height="20" as="geometry" />
        </mxCell>
        <mxCell id="GgnKUjVVI10d0pknX_XY-24" value="" style="rounded=0;whiteSpace=wrap;html=1;fillColor=#ffe6cc;strokeColor=#d79b00;container=0;" vertex="1" parent="1">
          <mxGeometry x="60" y="290" width="480" height="50" as="geometry" />
        </mxCell>
        <mxCell id="GgnKUjVVI10d0pknX_XY-25" value="ks精准功能验证" style="rounded=1;whiteSpace=wrap;html=1;fillColor=#ffe6cc;strokeColor=#d79b00;container=0;flipH=1;" vertex="1" parent="1">
          <mxGeometry x="443" y="302.821" width="87" height="25.389" as="geometry" />
        </mxCell>
        <mxCell id="GgnKUjVVI10d0pknX_XY-26" value="ks压力测试" style="rounded=1;whiteSpace=wrap;html=1;fillColor=#ffe6cc;strokeColor=#d79b00;container=0;flipH=1;" vertex="1" parent="1">
          <mxGeometry x="351" y="302.8203703124999" width="69" height="25.389" as="geometry" />
        </mxCell>
        <mxCell id="GgnKUjVVI10d0pknX_XY-27" value="ks异常测试" style="rounded=1;whiteSpace=wrap;html=1;fillColor=#ffe6cc;strokeColor=#d79b00;container=0;flipH=1;" vertex="1" parent="1">
          <mxGeometry x="267" y="302.821" width="69" height="25.389" as="geometry" />
        </mxCell>
        <mxCell id="GgnKUjVVI10d0pknX_XY-28" value="ks沙盒验证" style="rounded=1;whiteSpace=wrap;html=1;fillColor=#ffe6cc;strokeColor=#d79b00;container=0;flipH=1;" vertex="1" parent="1">
          <mxGeometry x="181" y="302.8193628124999" width="69" height="25.389" as="geometry" />
        </mxCell>
        <mxCell id="GgnKUjVVI10d0pknX_XY-29" value="ks diff 测试" style="rounded=1;whiteSpace=wrap;html=1;fillColor=#ffe6cc;strokeColor=#d79b00;container=0;flipH=1;" vertex="1" parent="1">
          <mxGeometry x="72.5" y="302.8193628124999" width="87" height="25.389" as="geometry" />
        </mxCell>
        <mxCell id="GgnKUjVVI10d0pknX_XY-30" value="KS 流水线" style="text;html=1;align=center;verticalAlign=middle;resizable=0;points=[];autosize=1;strokeColor=#d79b00;fillColor=#ffe6cc;" vertex="1" parent="1">
          <mxGeometry x="60" y="270" width="70" height="20" as="geometry" />
        </mxCell>
        <mxCell id="GgnKUjVVI10d0pknX_XY-57" value="" style="group;fillColor=#d5e8d4;strokeColor=#82b366;" vertex="1" connectable="0" parent="1">
          <mxGeometry x="650" y="250" width="440" height="300" as="geometry" />
        </mxCell>
        <mxCell id="GgnKUjVVI10d0pknX_XY-41" value="" style="ellipse;whiteSpace=wrap;html=1;fillColor=#d5e8d4;strokeColor=#82b366;" vertex="1" parent="GgnKUjVVI10d0pknX_XY-57">
          <mxGeometry width="440" height="300" as="geometry" />
        </mxCell>
        <mxCell id="GgnKUjVVI10d0pknX_XY-44" value="ksda 性能测试" style="rounded=1;whiteSpace=wrap;html=1;fillColor=#d5e8d4;strokeColor=#82b366;container=0;flipH=1;" vertex="1" parent="GgnKUjVVI10d0pknX_XY-57">
          <mxGeometry x="166.5" y="220.00100000000003" width="87" height="25.389" as="geometry" />
        </mxCell>
        <mxCell id="GgnKUjVVI10d0pknX_XY-45" value="ks diff 测试" style="rounded=1;whiteSpace=wrap;html=1;fillColor=#d5e8d4;strokeColor=#82b366;container=0;flipH=1;" vertex="1" parent="GgnKUjVVI10d0pknX_XY-57">
          <mxGeometry x="250" y="167.7003703124999" width="69" height="25.389" as="geometry" />
        </mxCell>
        <mxCell id="GgnKUjVVI10d0pknX_XY-47" value="ksda 功能测试" style="rounded=1;whiteSpace=wrap;html=1;fillColor=#d5e8d4;strokeColor=#82b366;container=0;flipH=1;" vertex="1" parent="GgnKUjVVI10d0pknX_XY-57">
          <mxGeometry x="50" y="168.20936281249988" width="87" height="25.389" as="geometry" />
        </mxCell>
        <mxCell id="GgnKUjVVI10d0pknX_XY-48" value="ks精准功能验证" style="rounded=1;whiteSpace=wrap;html=1;fillColor=#d5e8d4;strokeColor=#82b366;container=0;flipH=1;" vertex="1" parent="GgnKUjVVI10d0pknX_XY-57">
          <mxGeometry x="290" y="120.00100000000003" width="87" height="25.389" as="geometry" />
        </mxCell>
        <mxCell id="GgnKUjVVI10d0pknX_XY-49" value="ks压力测试" style="rounded=1;whiteSpace=wrap;html=1;fillColor=#d5e8d4;strokeColor=#82b366;container=0;flipH=1;" vertex="1" parent="GgnKUjVVI10d0pknX_XY-57">
          <mxGeometry x="270" y="64.61037031249987" width="69" height="25.389" as="geometry" />
        </mxCell>
        <mxCell id="GgnKUjVVI10d0pknX_XY-50" value="ks异常测试" style="rounded=1;whiteSpace=wrap;html=1;fillColor=#d5e8d4;strokeColor=#82b366;container=0;flipH=1;" vertex="1" parent="GgnKUjVVI10d0pknX_XY-57">
          <mxGeometry x="159" y="120.00099999999998" width="69" height="25.389" as="geometry" />
        </mxCell>
        <mxCell id="GgnKUjVVI10d0pknX_XY-51" value="ks沙盒验证" style="rounded=1;whiteSpace=wrap;html=1;fillColor=#d5e8d4;strokeColor=#82b366;container=0;flipH=1;" vertex="1" parent="GgnKUjVVI10d0pknX_XY-57">
          <mxGeometry x="90" y="64.60936281249991" width="69" height="25.389" as="geometry" />
        </mxCell>
        <mxCell id="GgnKUjVVI10d0pknX_XY-56" value="。。。。。" style="text;html=1;align=center;verticalAlign=middle;resizable=0;points=[];autosize=1;strokeColor=#82b366;fillColor=#d5e8d4;" vertex="1" parent="GgnKUjVVI10d0pknX_XY-57">
          <mxGeometry x="146.5" y="260" width="80" height="20" as="geometry" />
        </mxCell>
        <mxCell id="GgnKUjVVI10d0pknX_XY-74" value="" style="group;fillColor=#ffe6cc;strokeColor=#d79b00;" vertex="1" connectable="0" parent="1">
          <mxGeometry x="1241" y="300" width="490" height="250" as="geometry" />
        </mxCell>
        <mxCell id="GgnKUjVVI10d0pknX_XY-59" value="。。。。。。" style="rounded=0;whiteSpace=wrap;html=1;fillColor=#ffe6cc;strokeColor=#d79b00;container=0;" vertex="1" parent="GgnKUjVVI10d0pknX_XY-74">
          <mxGeometry x="10" y="200" width="480" height="50" as="geometry" />
        </mxCell>
        <mxCell id="GgnKUjVVI10d0pknX_XY-60" value="KG其他 流水线" style="text;html=1;align=center;verticalAlign=middle;resizable=0;points=[];autosize=1;strokeColor=#d79b00;fillColor=#ffe6cc;" vertex="1" parent="GgnKUjVVI10d0pknX_XY-74">
          <mxGeometry x="10" y="180" width="100" height="20" as="geometry" />
        </mxCell>
        <mxCell id="GgnKUjVVI10d0pknX_XY-61" value="" style="rounded=0;whiteSpace=wrap;html=1;fillColor=#ffe6cc;strokeColor=#d79b00;container=0;" vertex="1" parent="GgnKUjVVI10d0pknX_XY-74">
          <mxGeometry x="10" y="110" width="480" height="50" as="geometry" />
        </mxCell>
        <mxCell id="GgnKUjVVI10d0pknX_XY-62" value="ksda 性能测试" style="rounded=1;whiteSpace=wrap;html=1;fillColor=#ffe6cc;strokeColor=#d79b00;container=0;flipH=1;" vertex="1" parent="GgnKUjVVI10d0pknX_XY-74">
          <mxGeometry x="393" y="122.82100000000003" width="87" height="25.389" as="geometry" />
        </mxCell>
        <mxCell id="GgnKUjVVI10d0pknX_XY-63" value="ks diff 测试" style="rounded=1;whiteSpace=wrap;html=1;fillColor=#ffe6cc;strokeColor=#d79b00;container=0;flipH=1;" vertex="1" parent="GgnKUjVVI10d0pknX_XY-74">
          <mxGeometry x="260" y="122.31037031249991" width="69" height="25.389" as="geometry" />
        </mxCell>
        <mxCell id="GgnKUjVVI10d0pknX_XY-64" value="ks沙盒验证" style="rounded=1;whiteSpace=wrap;html=1;fillColor=#ffe6cc;strokeColor=#d79b00;container=0;flipH=1;" vertex="1" parent="GgnKUjVVI10d0pknX_XY-74">
          <mxGeometry x="150" y="122.3093628124999" width="69" height="25.389" as="geometry" />
        </mxCell>
        <mxCell id="GgnKUjVVI10d0pknX_XY-65" value="ksda 功能测试" style="rounded=1;whiteSpace=wrap;html=1;fillColor=#ffe6cc;strokeColor=#d79b00;container=0;flipH=1;" vertex="1" parent="GgnKUjVVI10d0pknX_XY-74">
          <mxGeometry x="22.5" y="122.81936281249989" width="87" height="25.389" as="geometry" />
        </mxCell>
        <mxCell id="GgnKUjVVI10d0pknX_XY-66" value="KSDA 流水线" style="text;html=1;align=center;verticalAlign=middle;resizable=0;points=[];autosize=1;strokeColor=#d79b00;fillColor=#ffe6cc;" vertex="1" parent="GgnKUjVVI10d0pknX_XY-74">
          <mxGeometry y="90" width="90" height="20" as="geometry" />
        </mxCell>
        <mxCell id="GgnKUjVVI10d0pknX_XY-67" value="" style="rounded=0;whiteSpace=wrap;html=1;fillColor=#ffe6cc;strokeColor=#d79b00;container=0;" vertex="1" parent="GgnKUjVVI10d0pknX_XY-74">
          <mxGeometry x="10" y="20" width="480" height="50" as="geometry" />
        </mxCell>
        <mxCell id="GgnKUjVVI10d0pknX_XY-68" value="ks精准功能验证" style="rounded=1;whiteSpace=wrap;html=1;fillColor=#ffe6cc;strokeColor=#d79b00;container=0;flipH=1;" vertex="1" parent="GgnKUjVVI10d0pknX_XY-74">
          <mxGeometry x="393" y="32.821000000000026" width="87" height="25.389" as="geometry" />
        </mxCell>
        <mxCell id="GgnKUjVVI10d0pknX_XY-69" value="ks压力测试" style="rounded=1;whiteSpace=wrap;html=1;fillColor=#ffe6cc;strokeColor=#d79b00;container=0;flipH=1;" vertex="1" parent="GgnKUjVVI10d0pknX_XY-74">
          <mxGeometry x="301" y="32.820370312499904" width="69" height="25.389" as="geometry" />
        </mxCell>
        <mxCell id="GgnKUjVVI10d0pknX_XY-70" value="ks异常测试" style="rounded=1;whiteSpace=wrap;html=1;fillColor=#ffe6cc;strokeColor=#d79b00;container=0;flipH=1;" vertex="1" parent="GgnKUjVVI10d0pknX_XY-74">
          <mxGeometry x="217" y="32.821000000000026" width="69" height="25.389" as="geometry" />
        </mxCell>
        <mxCell id="GgnKUjVVI10d0pknX_XY-71" value="ks沙盒验证" style="rounded=1;whiteSpace=wrap;html=1;fillColor=#ffe6cc;strokeColor=#d79b00;container=0;flipH=1;" vertex="1" parent="GgnKUjVVI10d0pknX_XY-74">
          <mxGeometry x="131" y="32.81936281249989" width="69" height="25.389" as="geometry" />
        </mxCell>
        <mxCell id="GgnKUjVVI10d0pknX_XY-72" value="ks diff 测试" style="rounded=1;whiteSpace=wrap;html=1;fillColor=#ffe6cc;strokeColor=#d79b00;container=0;flipH=1;" vertex="1" parent="GgnKUjVVI10d0pknX_XY-74">
          <mxGeometry x="22.5" y="32.81936281249989" width="87" height="25.389" as="geometry" />
        </mxCell>
        <mxCell id="GgnKUjVVI10d0pknX_XY-73" value="KS 流水线" style="text;html=1;align=center;verticalAlign=middle;resizable=0;points=[];autosize=1;strokeColor=#d79b00;fillColor=#ffe6cc;" vertex="1" parent="GgnKUjVVI10d0pknX_XY-74">
          <mxGeometry x="10" width="70" height="20" as="geometry" />
        </mxCell>
        <mxCell id="GgnKUjVVI10d0pknX_XY-76" value="" style="edgeStyle=orthogonalEdgeStyle;rounded=0;orthogonalLoop=1;jettySize=auto;html=1;" edge="1" parent="1" source="GgnKUjVVI10d0pknX_XY-41" target="GgnKUjVVI10d0pknX_XY-66">
          <mxGeometry relative="1" as="geometry" />
        </mxCell>
        <mxCell id="GgnKUjVVI10d0pknX_XY-77" value="提供流水线能力" style="edgeLabel;html=1;align=center;verticalAlign=middle;resizable=0;points=[];" vertex="1" connectable="0" parent="GgnKUjVVI10d0pknX_XY-76">
          <mxGeometry x="-0.1111" y="1" relative="1" as="geometry">
            <mxPoint as="offset" />
          </mxGeometry>
        </mxCell>
        <mxCell id="GgnKUjVVI10d0pknX_XY-78" value="引用" style="edgeStyle=orthogonalEdgeStyle;rounded=0;orthogonalLoop=1;jettySize=auto;html=1;entryX=1;entryY=0.5;entryDx=0;entryDy=0;curved=1;" edge="1" parent="1" source="GgnKUjVVI10d0pknX_XY-63" target="GgnKUjVVI10d0pknX_XY-45">
          <mxGeometry relative="1" as="geometry">
            <Array as="points">
              <mxPoint x="1530" y="720" />
              <mxPoint x="969" y="720" />
            </Array>
          </mxGeometry>
        </mxCell>
        <mxCell id="GgnKUjVVI10d0pknX_XY-79" style="edgeStyle=orthogonalEdgeStyle;curved=1;rounded=0;orthogonalLoop=1;jettySize=auto;html=1;" edge="1" parent="1" source="GgnKUjVVI10d0pknX_XY-64">
          <mxGeometry relative="1" as="geometry">
            <mxPoint x="970" y="435.00386281249985" as="targetPoint" />
            <Array as="points">
              <mxPoint x="1426" y="670" />
              <mxPoint x="970" y="670" />
            </Array>
          </mxGeometry>
        </mxCell>
        <mxCell id="GgnKUjVVI10d0pknX_XY-82" value="引用" style="edgeLabel;html=1;align=center;verticalAlign=middle;resizable=0;points=[];" vertex="1" connectable="0" parent="GgnKUjVVI10d0pknX_XY-79">
          <mxGeometry x="0.0272" y="-5" relative="1" as="geometry">
            <mxPoint as="offset" />
          </mxGeometry>
        </mxCell>
        <mxCell id="GgnKUjVVI10d0pknX_XY-80" style="edgeStyle=orthogonalEdgeStyle;curved=1;rounded=0;orthogonalLoop=1;jettySize=auto;html=1;" edge="1" parent="1" source="GgnKUjVVI10d0pknX_XY-71" target="GgnKUjVVI10d0pknX_XY-50">
          <mxGeometry relative="1" as="geometry">
            <Array as="points">
              <mxPoint x="1407" y="260" />
              <mxPoint x="844" y="260" />
            </Array>
          </mxGeometry>
        </mxCell>
        <mxCell id="GgnKUjVVI10d0pknX_XY-81" value="引用" style="edgeLabel;html=1;align=center;verticalAlign=middle;resizable=0;points=[];" vertex="1" connectable="0" parent="GgnKUjVVI10d0pknX_XY-80">
          <mxGeometry x="-0.0226" y="-2" relative="1" as="geometry">
            <mxPoint as="offset" />
          </mxGeometry>
        </mxCell>
        <mxCell id="GgnKUjVVI10d0pknX_XY-83" value="KG流水线能力聚集：&lt;br&gt;&lt;div style=&quot;text-align: left&quot;&gt;&lt;span&gt;1 提供给KG各模块流水线能力&lt;/span&gt;&lt;/div&gt;&lt;div style=&quot;text-align: left&quot;&gt;&lt;span&gt;2 对外提供KG测的测试能力，比如通过此通过向卧龙测提供&lt;/span&gt;&lt;/div&gt;" style="whiteSpace=wrap;html=1;fillColor=#d5e8d4;strokeColor=#82b366;" vertex="1" parent="1">
          <mxGeometry x="765" y="140" width="210" height="60" as="geometry" />
        </mxCell>
        <mxCell id="GgnKUjVVI10d0pknX_XY-84" value="" style="edgeStyle=orthogonalEdgeStyle;curved=1;rounded=0;orthogonalLoop=1;jettySize=auto;html=1;" edge="1" parent="1" source="GgnKUjVVI10d0pknX_XY-41" target="GgnKUjVVI10d0pknX_XY-83">
          <mxGeometry relative="1" as="geometry" />
        </mxCell>
      </root>
    </mxGraphModel>
  </diagram>
</mxfile>
